<svg viewBox="0.8918918918918921 11.491999999999997 98.91891891891892 77.22" version="1.1" xmlns="http://www.w3.org/2000/svg" style="max-height: 500px" width="98.91891891891892" height="77.22">
 <path d="m26.422 68.852c-0.82812 0-1.5-0.67187-1.5-1.5 0-0.82812 0.67188-1.5 1.5-1.5h0.20703c0.82812 0 1.5 0.67188 1.5 1.5 0 0.82813-0.67188 1.5-1.5 1.5zm3.957-42.707c0.36719 0.73828 0.070313 1.6367-0.66797 2.0039-0.73828 0.36719-1.6367 0.070312-2.0039-0.66797l-1.5625-3.1211c-0.36719-0.73828-0.070312-1.6367 0.66797-2.0039 0.73828-0.36719 1.6367-0.070313 2.0039 0.66797zm56.16 15.344c-0.64062 0.52344-1.5859 0.42969-2.1094-0.21094-0.52344-0.64062-0.42969-1.5859 0.21094-2.1094l2.4883-2.0391c0.64062-0.52344 1.5859-0.42969 2.1094 0.21094 0.52344 0.64062 0.42969 1.5859-0.21094 2.1094zm-12.578-25.738 0.69141 1.7188c0.48438 1.2383 0.73438 1.8633 1.0234 2.1523 0.30078 0.30078 0.94531 0.55078 2.2422 1.0547l1.6406 0.64453c0.76562 0.30859 1.1406 1.1797 0.83203 1.9453-0.16406 0.40625-0.48438 0.70312-0.86719 0.84375l-1.7891 0.71875c-1.1914 0.46484-1.7969 0.71094-2.082 0.99219-0.29688 0.29688-0.55078 0.94531-1.0547 2.2422l-0.64453 1.6406c-0.30859 0.76562-1.1797 1.1406-1.9453 0.83203-0.40625-0.16406-0.70312-0.48438-0.84375-0.86328l-0.69141-1.7188c-0.48438-1.2383-0.73438-1.8633-1.0234-2.1523-0.30078-0.30078-0.94531-0.55469-2.2422-1.0547l-1.6406-0.64453c-0.76562-0.30859-1.1406-1.1797-0.83203-1.9453 0.16406-0.40625 0.48438-0.70312 0.86328-0.84375l1.7188-0.6875c1.2383-0.48828 1.8633-0.73438 2.1562-1.0234 0.29688-0.29687 0.55078-0.94531 1.0547-2.2422l0.64844-1.6406c0.30859-0.76562 1.1797-1.1406 1.9453-0.83203 0.40625 0.16406 0.70312 0.48438 0.84375 0.86328zm-0.41016 5.9961c-0.41406-0.41406-0.69922-0.86328-0.98828-1.4805-0.28516 0.60938-0.56641 1.0508-0.97266 1.457-0.41406 0.41406-0.86328 0.69922-1.4805 0.98438 0.60938 0.28516 1.0508 0.56641 1.457 0.97266 0.41406 0.41406 0.69922 0.86328 0.98438 1.4805 0.28516-0.60938 0.56641-1.0508 0.97266-1.457 0.41406-0.41406 0.86328-0.69922 1.4805-0.98828-0.60547-0.28516-1.0508-0.56641-1.457-0.97266zm-60.586 9.0859 0.69141 1.7188c0.48828 1.2422 0.73438 1.8711 1.0156 2.1523 0.30469 0.30078 0.94922 0.55078 2.2461 1.0547l1.6406 0.64453c0.76562 0.30859 1.1406 1.1797 0.83203 1.9453-0.16406 0.40625-0.48438 0.70312-0.86328 0.84375l-1.7188 0.69141c-1.2383 0.48438-1.8633 0.73438-2.1523 1.0234-0.30078 0.30078-0.55078 0.94531-1.0547 2.2422l-0.64453 1.6406c-0.30859 0.76563-1.1797 1.1406-1.9453 0.83203-0.40625-0.16406-0.70312-0.48438-0.84375-0.86328l-0.69141-1.7188c-0.48437-1.2383-0.73437-1.8633-1.0234-2.1523-0.30078-0.30078-0.94531-0.55469-2.2422-1.0547l-1.6406-0.64453c-0.76562-0.30859-1.1406-1.1797-0.83203-1.9453 0.16406-0.40625 0.48438-0.70313 0.86719-0.84375l1.7188-0.6875c1.2383-0.48438 1.8633-0.73438 2.1523-1.0234 0.30078-0.30078 0.55469-0.94531 1.0547-2.2422l0.64453-1.6406c0.30859-0.76563 1.1797-1.1406 1.9453-0.83203 0.40625 0.16406 0.70312 0.48438 0.84375 0.86328zm-0.40625 5.9922c-0.41797-0.41797-0.70312-0.86719-0.98828-1.4805-0.28516 0.60938-0.56641 1.0508-0.97266 1.457-0.41406 0.41406-0.86328 0.69922-1.4805 0.98828 0.60937 0.28516 1.0508 0.56641 1.457 0.97266 0.41406 0.41406 0.69922 0.86328 0.98438 1.4805 0.28516-0.60938 0.56641-1.0508 0.97266-1.457 0.41406-0.41406 0.86328-0.69922 1.4805-0.98828-0.60938-0.28516-1.0508-0.57031-1.457-0.97656zm12.016 14.051c-0.42188 0.71094-1.3398 0.94531-2.0508 0.52734-0.71094-0.42188-0.94531-1.3398-0.52734-2.0508 1.1406-1.9297 2.3203-3.5156 3.4961-4.7891 1.3359-1.4492 2.6797-2.5195 3.9727-3.2734 0.71484-0.41406 1.6328-0.17187 2.043 0.54297 0.41406 0.71484 0.17188 1.6328-0.54297 2.043-1.043 0.60547-2.1445 1.4883-3.2695 2.7109-1.0391 1.1289-2.0938 2.5469-3.1211 4.2891zm48.051 31.348c0.82812 0 1.5 0.67188 1.5 1.5s-0.67188 1.5-1.5 1.5h-61.359c-2.2969 0-4.207-0.89844-5.5664-2.3477l-0.082031-0.097656c-1.3516-1.4922-2.1133-3.5273-2.1133-5.7422 0-0.82812 0.67188-1.5 1.5-1.5h90c0.82812 0 1.5 0.67188 1.5 1.5 0 2.2617-0.79297 4.3359-2.1953 5.8359-1.3594 1.457-3.2695 2.3555-5.5664 2.3555h-9.7422c-0.82812 0-1.5-0.67187-1.5-1.5 0-0.82812 0.67188-1.5 1.5-1.5h9.7422c1.418 0 2.5781-0.53516 3.3867-1.3984 0.57422-0.60938 0.98438-1.3984 1.2031-2.2891h-86.652c0.20703 0.85938 0.59766 1.625 1.1367 2.2266l0.0625 0.0625c0.80859 0.86328 1.9688 1.3984 3.3867 1.3984h61.359zm-28.531-53.984v-3.3438c0-1.625 0.66406-3.1016 1.7344-4.1719 1.0703-1.0742 2.5508-1.7383 4.1758-1.7383 1.6211 0 3.1055 0.66797 4.1758 1.7383 1.0703 1.0703 1.7344 2.5469 1.7344 4.1719v3.3438c8.5586 1.2812 16.223 5.3047 22.062 11.145 7.1562 7.1562 11.586 17.047 11.586 27.969 0 0.82813-0.67188 1.5-1.5 1.5h-55.051c-0.82812 0-1.5-0.67187-1.5-1.5 0-0.82812 0.67188-1.5 1.5-1.5h53.52c-0.38281-9.4961-4.3906-18.062-10.676-24.348-6.9102-6.9102-16.18-10.707-25.848-10.707-9.6836 0-18.945 3.8047-25.848 10.707-6.2852 6.2852-10.293 14.852-10.676 24.348h6.5664c0.82812 0 1.5 0.67188 1.5 1.5 0 0.82813-0.67188 1.5-1.5 1.5h-8.0977c-0.82812 0-1.5-0.67187-1.5-1.5 0-10.922 4.4297-20.812 11.586-27.969 5.8398-5.8398 13.5-9.8633 22.059-11.145zm8.8164-0.33203v-3.0117c0-0.80469-0.32812-1.5352-0.85547-2.0625-0.52344-0.52344-1.25-0.84766-2.0547-0.84766-0.80078 0-1.5273 0.32812-2.0547 0.85547-0.52734 0.52344-0.85547 1.2539-0.85547 2.0547v3.0117c0.96094-0.070312 1.9297-0.10547 2.9102-0.10547 0.97656 0 1.9453 0.035157 2.9062 0.10547z"/>
<text fill="#000000" font-family="Arbeit Regular, Helvetica, Arial-Unicode, Arial, Sans-serif" font-weight="bold" font-size="5.0" y="117.5" x="0.0">Created by Lula Sugiantoro</text><text fill="#000000" font-family="Arbeit Regular, Helvetica, Arial-Unicode, Arial, Sans-serif" font-weight="bold" font-size="5.0" y="122.5" x="0.0">from Noun Project</text></svg>